<?xml version="1.0" encoding="UTF-8" standalone="no"?>
<!-- Created with Inkscape (http://www.inkscape.org/) -->

<svg
   xmlns:dc="http://purl.org/dc/elements/1.1/"
   xmlns:cc="http://creativecommons.org/ns#"
   xmlns:rdf="http://www.w3.org/1999/02/22-rdf-syntax-ns#"
   xmlns:svg="http://www.w3.org/2000/svg"
   xmlns="http://www.w3.org/2000/svg"
   xmlns:xlink="http://www.w3.org/1999/xlink"
   xmlns:sodipodi="http://sodipodi.sourceforge.net/DTD/sodipodi-0.dtd"
   xmlns:inkscape="http://www.inkscape.org/namespaces/inkscape"
   width="160.1611mm"
   height="160.1611mm"
   viewBox="0 0 160.1611 160.1611"
   version="1.1"
   id="svg4638"
   inkscape:version="0.92.3 (2405546, 2018-03-11)"
   sodipodi:docname="icon.svg">
  <defs
     id="defs4632" />
  <sodipodi:namedview
     id="base"
     pagecolor="#ffffff"
     bordercolor="#666666"
     borderopacity="1.0"
     inkscape:pageopacity="0.0"
     inkscape:pageshadow="2"
     inkscape:zoom="0.98994949"
     inkscape:cx="247.48865"
     inkscape:cy="341.27347"
     inkscape:document-units="mm"
     inkscape:current-layer="layer4"
     showgrid="false"
     fit-margin-top="0"
     fit-margin-left="0"
     fit-margin-right="0"
     fit-margin-bottom="0"
     inkscape:window-width="1920"
     inkscape:window-height="1005"
     inkscape:window-x="1911"
     inkscape:window-y="-9"
     inkscape:window-maximized="1"
     inkscape:snap-global="false" />
  <metadata
     id="metadata4635">
    <rdf:RDF>
      <cc:Work
         rdf:about="">
        <dc:format>image/svg+xml</dc:format>
        <dc:type
           rdf:resource="http://purl.org/dc/dcmitype/StillImage" />
        <dc:title></dc:title>
      </cc:Work>
    </rdf:RDF>
  </metadata>
  <g
     inkscape:label="Layer 1"
     inkscape:groupmode="layer"
     id="layer1"
     transform="translate(-37.795876,-49.431812)"
     style="display:none"
     sodipodi:insensitive="true">
    <image
       sodipodi:absref="D:\web\userscripts\template_project\tampermonkey_icon.png"
       xlink:href="tampermonkey_icon.png"
       width="160.1611"
       height="160.1611"
       preserveAspectRatio="none"
       style="image-rendering:optimizeSpeed"
       id="image5191"
       x="37.795876"
       y="49.431812" />
  </g>
  <g
     inkscape:groupmode="layer"
     id="layer4"
     inkscape:label="redraw">
    <path
       style="color:#000000;clip-rule:nonzero;display:inline;overflow:visible;visibility:visible;opacity:1;isolation:auto;mix-blend-mode:normal;color-interpolation:sRGB;color-interpolation-filters:linearRGB;solid-color:#000000;solid-opacity:1;fill:#222222;fill-opacity:1;fill-rule:nonzero;stroke:none;stroke-width:0.24566928;stroke-linecap:round;stroke-linejoin:miter;stroke-miterlimit:4;stroke-dasharray:none;stroke-dashoffset:0;stroke-opacity:0.67826083;color-rendering:auto;image-rendering:auto;shape-rendering:auto;text-rendering:auto;enable-background:accumulate"
       d="M 146.47266 0 C 65.327099 -1.8947806e-014 0 65.327099 0 146.47266 L 0 458.86133 C -1.8947806e-014 540.00688 65.327099 605.33398 146.47266 605.33398 L 458.86133 605.33398 C 540.00688 605.33398 605.33398 540.00688 605.33398 458.86133 L 605.33398 146.47266 C 605.33398 65.327099 540.00688 0 458.86133 0 L 146.47266 0 z M 161.625 321.98633 A 122.22845 122.22845 0 0 1 283.85352 444.21484 A 122.22845 122.22845 0 0 1 161.625 566.44336 A 122.22845 122.22845 0 0 1 39.396484 444.21484 A 122.22845 122.22845 0 0 1 161.625 321.98633 z M 444.48242 321.98633 A 122.22845 122.22845 0 0 1 566.71094 444.21484 A 122.22845 122.22845 0 0 1 444.48242 566.44336 A 122.22845 122.22845 0 0 1 322.25391 444.21484 A 122.22845 122.22845 0 0 1 444.48242 321.98633 z "
       transform="scale(0.26458333)"
       id="rect5194" />
    <g
       id="g5237"
       transform="matrix(0.07097832,0,0,0.07097832,37.752124,4.2660035)">
      <path
         id="path5220"
         d="m 600,0 530.3,300 V 900 L 600,1200 69.7,900 V 300 Z"
         inkscape:connector-curvature="0"
         style="fill:#ffffff" />
      <path
         id="path5222"
         d="M 1035.6,879.3 617.5,1115.8 V 931.6 L 878,788.3 Z m 28.6,-25.9 V 358.8 l -153,88.3 V 765 Z m -901.5,25.9 418.1,236.5 V 931.6 L 320.3,788.3 Z M 134.1,853.4 V 358.8 l 153,88.3 V 765 Z M 152,326.8 580.8,84.2 v 178.1 l -274.7,151.1 -2.1,1.2 z m 894.3,0 L 617.5,84.2 v 178.1 l 274.7,151.1 2.1,1.2 z"
         class="st1"
         inkscape:connector-curvature="0"
         style="fill:#8ed6fb" />
      <path
         id="path5224"
         d="m 580.8,889.7 -257,-141.3 v -280 l 257,148.4 z m 36.7,0 257,-141.3 v -280 l -257,148.4 z M 599.2,606.1 Z m -258,-170.1 258,-141.9 258,141.9 -258,149 z"
         inkscape:connector-curvature="0"
         style="fill:#1c78c0" />
    </g>
  </g>
</svg>
